<?xml version="1.0" standalone="no"?>
<!DOCTYPE svg PUBLIC "-//W3C//DTD SVG 20010904//EN"
 "http://www.w3.org/TR/2001/REC-SVG-20010904/DTD/svg10.dtd">
<svg version="1.0" xmlns="http://www.w3.org/2000/svg"
 width="1279.000000pt" height="440.000000pt" viewBox="0 0 1279.000000 440.000000"
 preserveAspectRatio="xMidYMid meet">
<metadata>
Created by potrace 1.16, written by Peter Selinger 2001-2019
</metadata>
<g transform="translate(0.000000,440.000000) scale(0.100000,-0.100000)"
fill="#2980b9" stroke="none">
<path d="M1585 4200 c-35 -4 -91 -21 -135 -42 -124 -58 -240 -105 -412 -163
-184 -63 -250 -102 -309 -181 -126 -166 -178 -420 -108 -529 35 -54 94 -210
172 -450 35 -110 80 -243 100 -297 20 -53 52 -152 71 -220 42 -154 70 -210
146 -291 l60 -65 0 -81 c0 -45 4 -81 10 -81 5 0 49 18 98 39 332 146 620 164
947 60 106 -34 248 -104 322 -159 29 -22 55 -40 58 -40 3 0 5 32 5 70 0 67 1
70 23 70 13 0 33 10 44 23 48 52 100 229 109 372 5 77 11 100 41 160 60 118
175 300 309 490 60 86 159 278 183 359 12 37 21 87 21 110 0 62 -27 163 -61
230 -32 63 -116 173 -166 216 -114 100 -202 165 -283 212 -99 56 -355 145
-485 167 -164 28 -598 40 -760 21z m431 -78 c21 -13 44 -71 44 -109 0 -21 -6
-78 -14 -128 -29 -185 -45 -463 -48 -855 -1 -157 -5 -346 -8 -420 l-5 -135
-48 182 c-101 384 -157 690 -157 864 0 58 7 179 16 268 21 222 44 281 129 325
32 17 73 20 91 8z m-691 -221 c16 -9 40 -32 52 -50 40 -59 46 -125 48 -511 3
-481 31 -712 105 -849 17 -30 28 -56 26 -58 -6 -6 -111 183 -153 274 -47 103
-60 177 -68 398 -9 267 -21 394 -46 486 -20 74 -27 87 -90 154 -99 107 -103
144 -22 169 54 17 104 13 148 -13z m1415 -104 c0 -20 -44 -144 -74 -207 -34
-75 -67 -121 -164 -237 -131 -154 -197 -305 -226 -520 l-14 -98 -1 181 c-1
191 9 275 40 336 28 54 184 292 238 363 52 68 177 195 191 195 6 0 10 -6 10
-13z m-1884 -31 l28 -23 8 -199 c15 -373 22 -422 99 -727 38 -153 83 -313 100
-355 27 -68 90 -187 138 -262 9 -13 11 -21 4 -17 -23 15 -104 147 -158 259
-96 202 -170 445 -240 792 -20 99 -42 194 -49 210 -7 17 -34 55 -59 85 -47 55
-64 102 -52 140 11 36 57 83 100 102 51 23 49 23 81 -5z m2244 -195 c0 -36
-42 -159 -124 -361 -119 -291 -203 -514 -215 -570 -27 -121 -54 -210 -94 -302
-22 -54 -42 -97 -43 -95 -2 1 6 36 17 77 11 41 24 122 29 180 16 165 63 388
117 555 56 172 276 567 305 549 5 -3 8 -18 8 -33z"/>
<path d="M11220 2760 c-151 -11 -529 -35 -840 -55 -311 -19 -666 -42 -790 -50
-124 -8 -405 -26 -625 -40 -412 -26 -709 -45 -1110 -70 -126 -8 -412 -26 -635
-40 -223 -14 -542 -34 -710 -45 -168 -11 -519 -33 -780 -50 -261 -16 -761 -48
-1110 -70 -349 -22 -781 -49 -960 -60 -179 -11 -343 -25 -365 -31 -135 -36
-302 -211 -340 -354 -8 -32 -15 -89 -15 -126 l0 -67 73 -46 c77 -47 147 -115
190 -182 72 -115 102 -287 63 -366 -39 -81 -175 -174 -278 -193 -44 -8 -44
-12 -23 -103 39 -167 112 -221 304 -229 58 -2 747 -17 1531 -33 1518 -32 4278
-90 5410 -115 1816 -39 1798 -39 1843 -25 120 35 242 189 276 348 7 36 11 260
11 713 0 715 -1 735 -56 869 -37 92 -86 163 -163 238 -83 81 -169 134 -276
169 -107 34 -263 38 -625 13z m-2532 -685 c34 -10 56 -23 60 -35 9 -25 -5
-251 -16 -262 -5 -5 -40 -1 -78 8 -168 39 -326 -35 -364 -171 -33 -118 15
-272 110 -358 149 -134 351 -86 451 108 19 36 38 65 42 65 5 0 56 -28 114 -62
l104 -63 -6 -35 c-14 -74 -72 -175 -136 -234 -238 -221 -565 -224 -792 -7
-101 96 -175 235 -203 379 -18 93 -17 149 1 234 38 182 145 312 324 395 132
62 264 75 389 38z m-3508 -32 c130 -35 263 -134 334 -247 70 -111 99 -218 99
-361 -1 -171 -59 -311 -178 -431 -116 -118 -239 -167 -415 -168 -134 -1 -219
24 -324 95 -176 117 -269 296 -269 519 0 157 50 295 152 417 137 165 382 237
601 176z m-1096 -3 c43 -11 99 -31 124 -45 67 -37 142 -103 142 -126 0 -19
-69 -149 -112 -211 l-19 -28 -65 50 c-240 184 -506 38 -481 -264 8 -92 53
-186 109 -227 109 -78 261 -63 386 39 25 20 46 31 51 26 5 -5 36 -51 71 -102
72 -110 73 -120 2 -184 -99 -88 -215 -131 -362 -131 -151 -1 -279 47 -381 141
-111 102 -169 219 -191 383 -41 312 146 617 418 683 87 21 217 20 308 -4z
m7958 -2 c22 -17 50 -268 31 -275 -6 -3 -74 0 -151 6 -76 6 -181 11 -234 11
-115 0 -123 -6 -123 -92 0 -51 4 -63 24 -79 23 -19 35 -20 221 -13 150 5 199
4 204 -5 12 -19 19 -202 9 -246 l-9 -39 -215 3 c-189 2 -217 1 -229 -14 -11
-13 -11 -51 -3 -218 10 -183 9 -203 -6 -216 -12 -10 -47 -12 -160 -8 -79 3
-148 10 -153 15 -10 10 -12 363 -2 477 6 63 -7 395 -22 603 l-6 82 278 1 c230
1 428 8 515 17 8 1 22 -4 31 -10z m-5647 -25 c205 -38 347 -164 411 -367 47
-148 42 -296 -15 -436 -74 -180 -209 -297 -389 -335 -91 -20 -625 -21 -639 -2
-7 8 -7 107 -1 282 5 161 5 386 -1 560 -5 159 -7 295 -4 302 7 17 91 21 343
16 127 -3 248 -11 295 -20z m1008 17 l367 0 10 -22 c12 -29 29 -231 20 -241
-3 -4 -104 -3 -223 2 -137 7 -226 7 -242 1 -23 -9 -25 -15 -25 -73 0 -42 5
-70 16 -86 l17 -24 220 8 220 7 -6 -46 c-4 -25 -10 -88 -13 -140 l-7 -95 -197
6 c-108 3 -209 3 -223 -1 -26 -6 -27 -9 -27 -76 0 -85 15 -105 86 -116 48 -7
350 2 389 11 44 11 49 -5 36 -116 -7 -56 -18 -118 -24 -138 -11 -32 -16 -36
-45 -35 -17 0 -193 1 -389 2 -197 1 -364 6 -372 11 -13 8 -13 51 -3 308 9 219
9 369 1 567 -5 148 -8 275 -4 283 3 10 13 13 28 9 12 -3 187 -6 390 -6z m1903
-147 c-4 -82 -9 -171 -12 -199 -8 -84 -7 -84 224 -84 108 0 208 3 221 7 l24 6
-5 209 -6 208 163 0 c90 0 166 -3 168 -7 3 -5 0 -132 -5 -283 -7 -192 -6 -364
1 -569 10 -239 9 -296 -1 -303 -18 -11 -299 -10 -317 1 -11 7 -13 46 -9 221 4
175 3 214 -9 226 -12 11 -53 14 -209 14 -123 0 -203 -4 -216 -11 -20 -11 -20
-16 -13 -226 6 -177 5 -217 -6 -224 -8 -5 -79 -9 -160 -9 -197 0 -204 8 -110
123 92 112 161 267 161 359 0 48 -20 70 -116 126 -39 22 -75 47 -81 54 -6 8
-13 116 -17 261 l-7 247 171 0 172 0 -6 -147z m1742 134 c14 -17 35 -238 24
-249 -5 -5 -100 -4 -218 3 -148 7 -217 8 -236 0 -27 -10 -28 -13 -28 -85 0
-66 2 -77 21 -87 15 -8 81 -9 230 -4 174 6 209 5 209 -6 0 -8 -5 -71 -11 -140
l-12 -126 -208 5 c-159 4 -212 2 -224 -8 -18 -15 -20 -92 -4 -137 16 -49 66
-58 277 -49 98 4 188 8 202 9 22 2 25 -2 28 -39 4 -57 -24 -225 -40 -238 -14
-12 -791 -7 -803 6 -4 3 -1 120 5 260 12 240 8 686 -7 836 l-6 62 395 0 c314
0 398 -3 406 -13z"/>
<path d="M4935 1747 c-89 -36 -136 -83 -177 -174 -16 -36 -22 -68 -22 -129 0
-72 4 -89 32 -147 54 -108 133 -157 257 -157 244 0 373 332 203 525 -22 25
-59 55 -82 67 -49 25 -166 34 -211 15z"/>
<path d="M6133 1781 c-24 -4 -46 -11 -50 -15 -5 -4 -8 -147 -8 -317 0 -262 2
-311 15 -319 31 -19 140 -23 205 -7 77 19 120 46 161 101 51 67 69 129 68 231
0 77 -4 99 -29 153 -34 75 -95 134 -163 156 -59 20 -144 27 -199 17z"/>
<path d="M2716 1514 c-20 -19 -20 -26 -2 -69 13 -30 32 -43 158 -106 180 -90
185 -93 167 -115 -17 -21 -158 -87 -286 -135 -100 -37 -115 -55 -94 -111 12
-32 40 -42 89 -33 43 8 461 220 480 243 21 28 14 79 -15 112 -16 16 -84 57
-152 90 -68 34 -152 79 -188 101 -71 43 -129 51 -157 23z"/>
<path d="M900 1503 c-8 -3 -46 -24 -85 -46 -38 -23 -122 -67 -186 -98 -125
-62 -169 -101 -169 -150 0 -16 9 -38 20 -49 12 -12 120 -70 241 -130 230 -115
271 -127 302 -92 20 22 22 75 5 89 -7 5 -60 27 -118 48 -124 45 -256 111 -264
131 -7 18 30 41 195 121 93 46 128 68 137 88 15 33 15 60 0 72 -18 14 -60 22
-78 16z"/>
<path d="M1432 1383 c-143 -70 -142 -279 3 -344 109 -50 244 8 275 119 12 46
12 58 -1 105 -13 47 -63 106 -106 123 -44 19 -131 17 -171 -3z"/>
<path d="M2165 1384 c-73 -38 -105 -91 -105 -174 0 -138 139 -228 268 -175 49
21 81 52 103 100 43 92 11 188 -81 244 -43 26 -140 29 -185 5z"/>
<path d="M1600 734 c-30 -8 -88 -33 -129 -56 -74 -40 -75 -40 -161 -36 -87 4
-87 4 -142 51 -30 26 -59 47 -63 47 -4 0 -6 -42 -3 -93 5 -114 38 -194 96
-232 51 -33 182 -65 268 -65 139 0 295 74 356 169 27 42 29 52 25 111 -4 56
-9 68 -36 92 -27 25 -39 28 -94 27 -34 0 -87 -7 -117 -15z"/>
<path d="M1997 730 c-54 -43 -61 -148 -14 -219 34 -51 135 -116 221 -143 55
-17 85 -20 160 -16 101 6 223 42 261 78 42 40 68 117 73 218 2 50 1 92 -2 92
-4 0 -29 -19 -57 -42 -58 -51 -72 -56 -166 -57 -65 -1 -78 3 -145 38 -132 70
-278 92 -331 51z"/>
</g>
</svg>
